<?xml version="1.0" encoding="UTF-8" standalone="no"?>
<svg width="14px" height="14px" viewBox="0 0 33 32" version="1.1" xmlns="http://www.w3.org/2000/svg" xmlns:xlink="http://www.w3.org/1999/xlink">
    <!-- Generator: Sketch 3.8.1 (29687) - http://www.bohemiancoding.com/sketch -->
    <title>Select_active</title>
    <desc>Created with Sketch.</desc>
    <defs></defs>
    <g id="Page-1" stroke="none" stroke-width="1" fill="none" fill-rule="evenodd">
        <g id="Main" transform="translate(-899.000000, -471.000000)" fill="#FF7538">
            <g id="Group-4-Copy" transform="translate(768.000000, 305.000000)">
                <g id="Group-13" transform="translate(0.500000, 0.000000)">
                    <g id="Group-2" transform="translate(0.000000, 97.000000)">
                        <path d="M153.027,78.07 C152.548,77.79 151.937,77.96 151.661,78.43 L145.266,89.51 L141.688,86.21 C141.31,85.81 140.677,85.79 140.274,86.17 C139.871,86.54 139.85,87.18 140.228,87.58 L144.8,91.8 C145.177,92.2 145.81,92.22 146.213,91.84 C146.335,91.73 153.393,79.43 153.393,79.43 C153.669,78.96 153.505,78.34 153.027,78.07 L153.027,78.07 Z M147,99 C139.268,99 133,92.73 133,85 C133,77.27 139.268,71 147,71 C154.732,71 161,77.27 161,85 C161,92.73 154.732,99 147,99 L147,99 Z M147,69 C138.164,69 131,76.16 131,85 C131,93.84 138.164,101 147,101 C155.836,101 163,93.84 163,85 C163,76.16 155.836,69 147,69 L147,69 Z" id="Select_active"></path>
                    </g>
                </g>
            </g>
        </g>
    </g>
</svg>